<?xml version="1.0" encoding="utf-8"?>
<!-- Generator: Adobe Illustrator 22.1.0, SVG Export Plug-In . SVG Version: 6.00 Build 0)  -->
<svg version="1.1" id="hotel" xmlns="http://www.w3.org/2000/svg" xmlns:xlink="http://www.w3.org/1999/xlink" x="0px" y="0px"
	 viewBox="0 0 850 1215" style="enable-background:new 0 0 850 1215;" xml:space="preserve">
<style type="text/css">
	.hotel0{display:none;fill:#DA4626;}
	.hotel1{display:none;fill:#FFFFFF;}
	.hotel2{display:none;}
	.hotel3{display:inline;fill:none;}
	.hotel4{display:inline;fill:#DA4626;}
	.hotel5{font-family:'ChunkFiveEx';}
	.hotel6{font-size:40.8672px;}
	.hotel7{letter-spacing:4;}
	.hotel8{display:inline;}
	.hotel9{fill:#FFFFFF;}
	.hotel10{fill:#676767;}
	.hotel11{fill:#EFA260;}
	.hotel12{fill:#A5DCE6;}
	.hotel13{fill:#3A434D;}
	.hotel14{fill:#E47B25;}
	.hotel15{fill:#B12024;}
	.hotel16{fill:#921B20;}
	.hotel17{fill:#991C29;}
	.hotel18{fill:#A61F23;}
	.hotel19{fill:#326178;}
	.hotel20{fill:#A36127;}
	.hotel21{fill:#9DD7D7;}
	.hotel22{fill:#851719;}
	.hotel23{opacity:0.4;fill:#C1E5E6;enable-background:new    ;}
	.hotel24{fill:#264959;}
	.hotel25{fill:#7B491E;}
</style>
<g id="Layer_1">
	<circle class="hotel0" cx="315" cy="477" r="30"/>
	<circle class="hotel1" cx="315.2" cy="476.8" r="23.2"/>
	<g class="hotel2">
		<rect x="292.3" y="460.5" class="hotel3" width="45.2" height="38.1"/>
		<text transform="matrix(1 0 0 1 308.1777 491.1035)" class="hotel4 st5 st6 st7">i</text>
	</g>
	<g class="hotel2">
		<path class="hotel4" d="M107.7,395.6l16,52.1c0,0,40.5-16,106.1,18l-11,20.5l58.3-23.2l-0.9-65.8l-13.1,21.9
			C263.3,419.2,185.9,374.6,107.7,395.6z"/>
		<g class="hotel8">
			<path class="hotel9" d="M126,398.8c1-0.4,2.8-0.9,4-1c3.2-0.2,6.3,0.3,7,4.4c0.6,3.2-0.9,7.1-3.3,9.3c-1.9,1.7-4.5,2.4-7.3,2.5
				c-1.4,0.1-2.8-0.1-3.9-0.4C123.7,408.5,124.5,404.2,126,398.8z M132.4,403.9c-0.1-1.5-1-2-1.8-2c-0.3,0-0.9,0.1-1.2,0.2
				c-0.8,2.5-1.3,5.5-2.1,8.1C130.4,410.1,132.6,407,132.4,403.9z"/>
			<path class="hotel9" d="M153.9,405.8c-1.2,5-4.7,8.4-9.6,8.3c-4.1-0.1-6-3.6-5.1-7.9c1.1-5.5,5-8.3,9.4-8.3
				C153.1,397.8,155,401.3,153.9,405.8z M143.6,406.4c-0.6,1.8,0.2,3.8,1.9,3.8s3.4-1.8,4-3.9c0.6-2-0.2-3.6-2-3.6
				C145.6,402.7,144.1,404.6,143.6,406.4z"/>
			<path class="hotel9" d="M162.1,398.9c-0.7,2.3-1.1,5.4-1.4,7.7c1.5-2.3,3.1-4.9,4.4-7.1c0.8,0,1.9,0,2.8,0.1
				c-0.3,2.2-0.7,5.1-0.8,7.2c1.4-2.3,2.9-4.9,4.1-7.2c1.5,0.1,3.4,0.2,5.1,0.4c-3.3,4.9-6.4,9.7-10,14.7c-1.3-0.1-2.2-0.2-3.3-0.2
				c0.1-1.7,0.3-4.1,0.7-6.5c-1.2,1.9-3.1,4.4-4.4,6.3c-1.1-0.1-1.9-0.2-3.1-0.1c0.3-4.9,0.8-10.3,1.5-15.3
				C159.1,398.7,160.6,398.7,162.1,398.9z"/>
			<path class="hotel9" d="M176.3,415.9c-1.2-0.2-2.5-0.4-3.8-0.6c1.8-4.5,3.9-9.8,6.1-14.5c1.8,0.1,3.3,0.2,4.7,0.6l-0.6,8.7
				c1-2.8,2.4-5.7,3.8-8.5c1.5,0,3,0.1,4.3,0.6c-2.5,4.7-5,9.8-7,14.7c-1.5-0.3-3.1-0.4-4.6-0.6c0.1-2.6,0.2-7.8,0.2-7.7
				C178.3,411.2,177.2,413.6,176.3,415.9z"/>
			<path class="hotel9" d="M204.6,405.4c-0.8,1.4-1.5,2.8-2.1,4.1c-1-0.2-2.1-0.6-3.2-0.7c-1.8,3.2-3.9,7.1-5.5,10.3
				c-1.2-0.3-2.8-0.7-4-0.8c1.5-3.1,3.3-7.1,5-10.4c-1-0.3-2.3-0.4-3.3-0.7c0.6-1.3,1.1-2.8,2-4.1
				C196.9,403.7,200.9,404.5,204.6,405.4z"/>
			<path class="hotel9" d="M216.9,417c-2.4,4.5-6.7,6.8-11.5,5.5c-4-1.1-4.7-5.1-2.9-8.9c2.5-5,7.1-6.7,11.3-5.6
				C218.2,409.2,219.2,413,216.9,417z M206.7,415c-1,1.5-0.8,3.6,0.8,4.1c1.5,0.3,3.8-0.9,4.7-2.6c1-1.8,0.8-3.5-0.9-4
				C209.6,411.8,207.7,413.3,206.7,415z"/>
			<path class="hotel9" d="M226.8,412.8c-1.2,2-2.6,4.9-3.5,7c2.1-1.8,4.3-3.8,6.3-5.5c0.8,0.2,1.8,0.6,2.6,0.9c-1,2.1-2.1,4.7-2.8,6.6
				c2.1-1.9,4.1-3.9,6-5.7c1.5,0.6,3.2,1.1,4.7,1.9c-4.5,3.8-8.8,7.5-13.8,11.3c-1.2-0.6-2.1-0.8-3.1-1.1c0.6-1.5,1.4-3.8,2.5-6.1
				c-1.8,1.5-4.2,3.3-6,4.7c-1.1-0.4-1.8-0.7-2.9-1c1.7-4.5,3.6-9.6,5.8-14.3C223.9,411.7,225.3,412.2,226.8,412.8z"/>
			<path class="hotel9" d="M235.5,433.3c-1.1-0.6-2.3-1.1-3.4-1.7c3-3.9,6.6-8.3,10.2-11.9c1.7,0.7,3.1,1.2,4.3,2l-3.2,8.2
				c1.9-2.3,4.1-4.7,6.1-7c1.4,0.4,2.8,1.1,4,1.8c-3.9,3.8-7.7,7.8-11,11.8c-1.3-0.8-2.8-1.4-4.3-1.9c1-2.5,2.6-7.4,2.6-7.3
				C238.8,429.4,237,431.4,235.5,433.3z"/>
		</g>
		<g class="hotel8">
			<path class="hotel9" d="M144.2,417.6c1.3,0.6,2.3,1.7,3.1,2.6c-2.6,1.5-4.9,3.3-7,5.1c0.9,2.2,1.8,4.7,3.2,7.6
				c-1.4,0.1-3,0.4-4.3,0.8c-1-2.1-2-4.5-2.8-6.8c-0.9,1.9-1.8,4.5-2.3,6.1c-1.1-0.2-2.9-0.2-4.2-0.2c1.7-5.1,3.3-10.2,5.1-15.1
				c1.9-0.1,3.2,0,5,0.1c-0.9,2.1-1.7,4.1-2.4,5.6C139.8,421.1,141.9,419.2,144.2,417.6z"/>
			<path class="hotel9" d="M142.1,433.2c3-4.7,6.1-9.8,9.4-14.5c2.1-0.1,4.2,0.1,6.1,0.3c-0.7,5.2-1.4,10.6-2.3,15.6
				c-1.3-0.2-2.5-0.3-3.9-0.3c0.2-0.9,0.3-1.8,0.4-2.6c-1.2-0.1-2.6-0.2-4.2-0.2c-0.6,0.8-1,1.5-1.7,2.2
				C144.8,433.4,143.3,433.3,142.1,433.2z M152.5,428.1c0.3-1.8,0.4-3.8,0.7-5.5c-1.3,1.7-2.4,3.5-3.6,5.2
				C150.6,427.8,151.4,427.9,152.5,428.1z"/>
			<path class="hotel9" d="M167.4,432.2c-0.7,1.2-1.4,2.4-2.3,3.6c-2.9-0.2-6.4-0.7-8.4-1c2-5,3.9-9.5,6.3-14.7
				c1.9-0.1,3.3,0.1,5.2,0.3c-2.8,4.6-4.2,7.5-6,11.3C163.5,432.1,165.7,432.2,167.4,432.2z"/>
			<path class="hotel9" d="M171.5,437.1c-1.3-0.3-2.8-0.7-4.2-0.7c2-4.9,4-9.4,6.5-14.5c1.5,0,3.2,0.2,4.7,0.6
				C175.9,427.6,173.8,432.1,171.5,437.1z"/>
			<path class="hotel9" d="M175.4,434.1c0.9,0.3,2.4,0.8,3.4,0.9c2.3,0.3,3.3-1,1.3-2.8c-1.4-1.2-2.1-2.3-2-4c0.1-0.8,0.6-1.7,1-2.2
				c1.7-2,5.1-2.2,7.6-2c1.4,0.1,2.8,0.4,4.1,0.9l-2,4.1c-0.9-0.4-3-0.9-4.1-0.7c-0.9,0.2-1.7,0.8-1.9,1.8s1.7,2,2.2,2.5
				c0.8,0.9,1.8,1.8,1.3,3.1c-0.1,0.4-0.4,0.9-0.8,1.2c-2.9,2.6-8.2,1.8-11.6,0.4L175.4,434.1z"/>
			<path class="hotel9" d="M193.9,426.4c1.2-0.1,3.4-0.1,5.2,0.4c2,0.6,5.4,1.7,4.5,5.7c-1,4.3-5.4,7.1-11.3,4.7
				c-1.2,1.9-1.5,2.4-2.4,3.6c-1-0.2-2.6-0.7-3.8-0.9C188.6,435.4,190.9,431,193.9,426.4z M197.4,434.1c1.3-0.8,2.4-2.9,0.8-3.6
				c-0.6-0.2-1.2-0.3-1.9-0.1c-0.7,1.2-1.4,2.4-2.1,3.6C195.3,434.4,196.5,434.5,197.4,434.1z"/>
			<path class="hotel9" d="M213.2,438.2c-0.6,1-1.1,1.7-1.8,2.6c-1.2-0.4-3.5-1.1-4.7-1.4c-0.4,0.7-0.9,1.2-1.3,1.9
				c1.3,0.4,3.8,1,5.4,1.3c-0.9,1.1-1.8,2.1-2.8,3.2c-2.8-0.7-6.4-1.8-8.3-2.3c2.6-4.5,5.1-8.8,8.3-13.5c3,0.4,7.1,1.5,9.9,2.5
				c-0.9,1.2-1.9,2.4-2.9,3.6c-1.3-0.4-3.8-1.1-5.3-1.4c-0.4,0.7-1,1.4-1.4,2.1C209.7,437.1,211.9,437.7,213.2,438.2z"/>
			<path class="hotel9" d="M221.9,446.2c-0.9,1.1-1.9,2.1-3,3.2c-2.8-0.8-6.1-1.9-8.1-2.5c2.9-4.5,5.6-8.6,9-13.1
				c1.9,0.3,3.2,0.7,5,1.3c-3.5,4.1-5.5,6.5-8.1,9.8C218.1,445.3,220.3,445.9,221.9,446.2z"/>
			<path class="hotel9" d="M231.8,450.2c-1,1-2,2.1-3.1,3c-2.8-0.9-6.1-2.2-7.9-3c3.1-4.3,6-8.3,9.6-12.7c1.8,0.3,3.2,0.9,4.9,1.5
				c-3.8,3.9-5.8,6.3-8.5,9.5C228.1,449.1,230.3,449.8,231.8,450.2z"/>
		</g>
	</g>
	<g class="hotel2">
		<text transform="matrix(1 0 0 1 -247.1664 462.0015)" class="hotel8"><tspan x="0" y="0" style="fill:#DA4626; font-family:'Quasimoda-ExtraBold'; font-size:23.52px; letter-spacing:2;">D</tspan><tspan x="20.2" y="0" style="fill:#DA4626; font-family:'Quasimoda-ExtraBold'; font-size:23.52px; letter-spacing:1;">O</tspan><tspan x="41.7" y="0" style="fill:#DA4626; font-family:'Quasimoda-ExtraBold'; font-size:23.52px; letter-spacing:2;">WN</tspan><tspan x="89" y="0" style="fill:#DA4626; font-family:'Quasimoda-ExtraBold'; font-size:23.52px; letter-spacing:1;">T</tspan><tspan x="105.5" y="0" style="fill:#DA4626; font-family:'Quasimoda-ExtraBold'; font-size:23.52px; letter-spacing:1;">O</tspan><tspan x="127.4" y="0" style="fill:#DA4626; font-family:'Quasimoda-ExtraBold'; font-size:23.52px; letter-spacing:2;">WN</tspan><tspan x="0" y="22" style="fill:#DA4626; font-family:'Quasimoda-ExtraBold'; font-size:23.52px; letter-spacing:3;">K</tspan><tspan x="20.1" y="22" style="fill:#DA4626; font-family:'Quasimoda-ExtraBold'; font-size:23.52px; letter-spacing:3;">AL</tspan><tspan x="56.8" y="22" style="fill:#DA4626; font-family:'Quasimoda-ExtraBold'; font-size:23.52px; letter-spacing:2;">ISP</tspan><tspan x="100.5" y="22" style="fill:#DA4626; font-family:'Quasimoda-ExtraBold'; font-size:23.52px; letter-spacing:3;">ELL</tspan></text>
		<text transform="matrix(1 0 0 1 -247.1664 462.0015)" class="hotel8"><tspan x="0" y="0" style="fill:none;stroke:#F2F2F2;stroke-width:3;stroke-linejoin:round;stroke-miterlimit:10; font-family:'Quasimoda-ExtraBold'; font-size:23.52px; letter-spacing:2;">D</tspan><tspan x="20.2" y="0" style="fill:none;stroke:#F2F2F2;stroke-width:3;stroke-linejoin:round;stroke-miterlimit:10; font-family:'Quasimoda-ExtraBold'; font-size:23.52px; letter-spacing:1;">O</tspan><tspan x="41.7" y="0" style="fill:none;stroke:#F2F2F2;stroke-width:3;stroke-linejoin:round;stroke-miterlimit:10; font-family:'Quasimoda-ExtraBold'; font-size:23.52px; letter-spacing:2;">WN</tspan><tspan x="89" y="0" style="fill:none;stroke:#F2F2F2;stroke-width:3;stroke-linejoin:round;stroke-miterlimit:10; font-family:'Quasimoda-ExtraBold'; font-size:23.52px; letter-spacing:1;">T</tspan><tspan x="105.5" y="0" style="fill:none;stroke:#F2F2F2;stroke-width:3;stroke-linejoin:round;stroke-miterlimit:10; font-family:'Quasimoda-ExtraBold'; font-size:23.52px; letter-spacing:1;">O</tspan><tspan x="127.4" y="0" style="fill:none;stroke:#F2F2F2;stroke-width:3;stroke-linejoin:round;stroke-miterlimit:10; font-family:'Quasimoda-ExtraBold'; font-size:23.52px; letter-spacing:2;">WN</tspan><tspan x="0" y="22" style="fill:none;stroke:#F2F2F2;stroke-width:3;stroke-linejoin:round;stroke-miterlimit:10; font-family:'Quasimoda-ExtraBold'; font-size:23.52px; letter-spacing:3;">K</tspan><tspan x="20.1" y="22" style="fill:none;stroke:#F2F2F2;stroke-width:3;stroke-linejoin:round;stroke-miterlimit:10; font-family:'Quasimoda-ExtraBold'; font-size:23.52px; letter-spacing:3;">AL</tspan><tspan x="56.8" y="22" style="fill:none;stroke:#F2F2F2;stroke-width:3;stroke-linejoin:round;stroke-miterlimit:10; font-family:'Quasimoda-ExtraBold'; font-size:23.52px; letter-spacing:2;">ISP</tspan><tspan x="100.5" y="22" style="fill:none;stroke:#F2F2F2;stroke-width:3;stroke-linejoin:round;stroke-miterlimit:10; font-family:'Quasimoda-ExtraBold'; font-size:23.52px; letter-spacing:3;">ELL</tspan></text>
		<text transform="matrix(1 0 0 1 -247.1664 462.0015)" class="hotel8"><tspan x="0" y="0" style="fill:#DA4626; font-family:'Quasimoda-ExtraBold'; font-size:23.52px; letter-spacing:2;">D</tspan><tspan x="20.2" y="0" style="fill:#DA4626; font-family:'Quasimoda-ExtraBold'; font-size:23.52px; letter-spacing:1;">O</tspan><tspan x="41.7" y="0" style="fill:#DA4626; font-family:'Quasimoda-ExtraBold'; font-size:23.52px; letter-spacing:2;">WN</tspan><tspan x="89" y="0" style="fill:#DA4626; font-family:'Quasimoda-ExtraBold'; font-size:23.52px; letter-spacing:1;">T</tspan><tspan x="105.5" y="0" style="fill:#DA4626; font-family:'Quasimoda-ExtraBold'; font-size:23.52px; letter-spacing:1;">O</tspan><tspan x="127.4" y="0" style="fill:#DA4626; font-family:'Quasimoda-ExtraBold'; font-size:23.52px; letter-spacing:2;">WN</tspan><tspan x="0" y="22" style="fill:#DA4626; font-family:'Quasimoda-ExtraBold'; font-size:23.52px; letter-spacing:3;">K</tspan><tspan x="20.1" y="22" style="fill:#DA4626; font-family:'Quasimoda-ExtraBold'; font-size:23.52px; letter-spacing:3;">AL</tspan><tspan x="56.8" y="22" style="fill:#DA4626; font-family:'Quasimoda-ExtraBold'; font-size:23.52px; letter-spacing:2;">ISP</tspan><tspan x="100.5" y="22" style="fill:#DA4626; font-family:'Quasimoda-ExtraBold'; font-size:23.52px; letter-spacing:3;">ELL</tspan></text>
	</g>
</g>
<g id="Layer_3">
	<circle class="hotel10" cx="229.7" cy="540.9" r="8.2"/>
	<rect x="194.5" y="539.9" class="hotel11" width="66.9" height="78.2"/>
	<rect x="202.4" y="550.2" class="hotel12" width="6.9" height="9.6"/>
	<rect x="246.6" y="550.2" class="hotel12" width="6.9" height="9.6"/>
	<rect x="231.9" y="550.2" class="hotel12" width="6.9" height="9.6"/>
	<rect x="217.1" y="550.2" class="hotel12" width="6.9" height="9.6"/>
	<rect x="202.4" y="570.2" class="hotel12" width="6.9" height="9.6"/>
	<rect x="246.6" y="570.2" class="hotel12" width="6.9" height="9.6"/>
	<rect x="231.9" y="570.2" class="hotel12" width="6.9" height="9.6"/>
	<rect x="217.1" y="570.2" class="hotel12" width="6.9" height="9.6"/>
	<rect x="202.4" y="590.2" class="hotel12" width="6.9" height="9.6"/>
	<rect x="246.6" y="590.2" class="hotel12" width="6.9" height="9.6"/>
	<rect x="231.9" y="590.2" class="hotel12" width="6.9" height="9.6"/>
	<rect x="217.1" y="590.2" class="hotel12" width="6.9" height="9.6"/>
	<rect x="222.7" y="605.6" class="hotel13" width="10.5" height="12.5"/>
	<rect x="204.5" y="518.8" class="hotel14" width="46.9" height="14"/>
	<path class="hotel9" d="M214.6,521.6h2v8.8h-2V527h-2.5v3.3h-2v-8.8h2v3.5h2.5V521.6z"/>
	<path class="hotel9" d="M222,521.5c0.6,0,1.2,0.1,1.7,0.3s1,0.5,1.4,0.9s0.7,0.9,0.9,1.4c0.2,0.5,0.3,1.1,0.3,1.7s-0.1,1.2-0.3,1.7
		c-0.2,0.5-0.5,1-0.9,1.4s-0.9,0.7-1.4,0.9s-1.1,0.3-1.7,0.3s-1.2-0.1-1.7-0.3s-1-0.5-1.4-0.9s-0.7-0.9-0.9-1.4
		c-0.2-0.5-0.3-1.1-0.3-1.7c0-0.6,0.1-1.2,0.3-1.7c0.2-0.5,0.5-1,0.9-1.4s0.9-0.7,1.4-0.9C220.9,521.7,221.4,521.5,222,521.5z
		 M222,528.3c0.3,0,0.6-0.1,0.9-0.2c0.3-0.1,0.5-0.3,0.8-0.5c0.2-0.2,0.4-0.5,0.5-0.8s0.2-0.6,0.2-0.9s-0.1-0.6-0.2-0.9
		c-0.1-0.3-0.3-0.5-0.5-0.8c-0.2-0.2-0.5-0.4-0.8-0.5c-0.3-0.1-0.6-0.2-0.9-0.2s-0.6,0.1-0.9,0.2c-0.3,0.1-0.5,0.3-0.8,0.5
		c-0.2,0.2-0.4,0.5-0.5,0.8s-0.2,0.6-0.2,0.9s0.1,0.6,0.2,0.9c0.1,0.3,0.3,0.5,0.5,0.8c0.2,0.2,0.5,0.4,0.8,0.5
		C221.4,528.3,221.7,528.3,222,528.3z"/>
	<path class="hotel9" d="M232.7,521.5v2H231v6.8h-2v-6.8h-1.7v-2H232.7z"/>
	<path class="hotel9" d="M239.7,523.6h-3.6v1.3h2.9v2h-2.9v1.4h3.6v2H234v-8.8h5.7V523.6z"/>
	<path class="hotel9" d="M246.6,530.4h-5.2v-8.8h2v6.8h3.2V530.4z"/>
</g>
<g id="Layer_2" class="hotel2">
	<g class="hotel8">
		<rect x="317.6" y="534.7" class="hotel15" width="65.3" height="17.2"/>
		<rect x="317.6" y="534.7" class="hotel16" width="65.3" height="3.7"/>
		<rect x="317.6" y="538.4" class="hotel17" width="65.3" height="3.7"/>
		<rect x="317.6" y="542.1" class="hotel18" width="65.3" height="3.7"/>
		<path class="hotel19" d="M367.7,551.9v-4.8c0-1-1-1.8-2.3-1.8h-7.5v-0.6c0-0.6-0.6-1-1.3-1h-12.8c-0.7,0-1.3,0.5-1.3,1v0.6h-7.3
			c-1.3,0-2.3,0.8-2.3,1.8v4.8h-13.8v45.3h62v-45.3H367.7z"/>
		<rect x="342.2" y="573" class="hotel20" width="34.7" height="18.6"/>
		<rect x="344" y="574.2" class="hotel21" width="31.2" height="16.1"/>
		<rect x="319.3" y="594.5" class="hotel22" width="62" height="2.9"/>
		<polygon class="hotel23" points="354.5,590.4 361.2,574.2 359.6,574.2 352.9,590.4 		"/>
		<rect x="323.6" y="593.5" class="hotel19" width="13.2" height="3"/>
		<rect x="323.6" y="595.6" class="hotel24" width="13.2" height="0.5"/>
		<polygon class="hotel23" points="362.1,590.4 368.9,574.2 367.4,574.2 360.7,590.4 		"/>
		<polygon class="hotel23" points="348.5,590.4 355.2,574.2 353.6,574.2 346.9,590.4 		"/>
		<polygon class="hotel23" points="368.3,590.4 375.1,574.2 373.6,574.2 366.8,590.4 		"/>
		<rect x="324.5" y="571.2" class="hotel20" width="11.8" height="22.3"/>
		<rect x="322.9" y="596" class="hotel19" width="14.5" height="3"/>
		<rect x="338.3" y="591.3" class="hotel25" width="42.4" height="1"/>
		<rect x="325.4" y="572" class="hotel21" width="10.1" height="20.7"/>
		<path class="hotel21" d="M380.2,565.8h-3h-4h-4h-4h-4h-4h-4H349h-4h-4h-4h-4h-4h-4h-2.8h-1.4v8.5c0,1,0.9,1.8,2.1,1.8
			c1,0,1.8-0.6,2-1.4h0.1c0.2,0.8,1,1.4,2.1,1.4c1,0,1.8-0.6,2-1.4h0.1c0.2,0.8,1,1.4,2.1,1.4c1,0,1.8-0.6,2-1.4h0.1
			c0.2,0.8,1,1.4,2.1,1.4c1,0,1.8-0.6,2-1.4h0.1c0.2,0.8,1,1.4,2.1,1.4c1,0,1.8-0.6,2-1.4h0.1c0.2,0.8,1,1.4,2,1.4s1.8-0.6,2-1.4
			h0.1c0.2,0.8,1,1.4,2.1,1.4c1,0,1.8-0.6,2-1.4h0.1c0.2,0.8,1,1.4,2.1,1.4c1,0,1.8-0.6,2-1.4h0.1c0.2,0.8,1,1.4,2.1,1.4
			c1,0,1.8-0.6,2-1.4h0.1c0.2,0.8,1,1.4,2.1,1.4c1,0,1.8-0.6,2-1.4h0.1c0.2,0.8,1,1.4,2.1,1.4c1,0,1.8-0.6,2-1.4h0.1
			c0.2,0.8,1,1.4,2.1,1.4c1,0,1.8-0.6,2-1.4h0.1c0.2,0.8,1,1.4,2,1.4s1.8-0.6,2-1.4h0.1c0.2,0.8,1,1.4,2.1,1.4c1,0,1.8-0.6,2-1.4
			h0.1c0.2,0.8,1,1.4,2.1,1.4s2-0.8,2-1.7v-8.6H380.2L380.2,565.8z"/>
		<polygon class="hotel23" points="327.8,592.7 336.5,571.9 334.4,571.9 325.9,592.7 		"/>
		<rect x="325.4" y="582.8" class="hotel20" width="10.1" height="1"/>
		<rect x="325.4" y="588.5" class="hotel20" width="10.1" height="1"/>
		<rect x="325.4" y="577.6" class="hotel20" width="10.1" height="1"/>
		<g>
			<path class="hotel9" d="M322.6,573.7c0,0.9-0.7,1.6-1.6,1.6s-1.7-0.7-1.7-1.6V566h3.2L322.6,573.7L322.6,573.7z"/>
			<path class="hotel19" d="M325.9,573.7c0,0.9-0.7,1.6-1.6,1.6s-1.7-0.7-1.7-1.6V566h3.2L325.9,573.7L325.9,573.7z"/>
			<path class="hotel9" d="M329.1,573.7c0,0.9-0.7,1.6-1.6,1.6s-1.7-0.7-1.7-1.6V566h3.2L329.1,573.7L329.1,573.7z"/>
			<path class="hotel19" d="M332.3,573.7c0,0.9-0.7,1.6-1.6,1.6s-1.7-0.7-1.7-1.6V566h3.2L332.3,573.7L332.3,573.7z"/>
			<path class="hotel9" d="M335.5,573.6c0,0.9-0.7,1.6-1.6,1.6s-1.7-0.7-1.7-1.6v-7.7h3.2L335.5,573.6L335.5,573.6z"/>
			<path class="hotel19" d="M338.8,573.6c0,0.9-0.7,1.6-1.6,1.6s-1.7-0.7-1.7-1.6v-7.7h3.2L338.8,573.6L338.8,573.6z"/>
			<path class="hotel9" d="M342.1,573.6c0,0.9-0.7,1.6-1.6,1.6s-1.7-0.7-1.7-1.6v-7.7h3.2L342.1,573.6L342.1,573.6z"/>
			<path class="hotel19" d="M345.3,573.6c0,0.9-0.7,1.6-1.6,1.6s-1.7-0.7-1.7-1.6v-7.7h3.2L345.3,573.6L345.3,573.6z"/>
			<path class="hotel9" d="M348.6,573.6c0,0.9-0.7,1.6-1.6,1.6s-1.7-0.7-1.7-1.6v-7.7h3.2L348.6,573.6L348.6,573.6z"/>
			<path class="hotel19" d="M351.8,573.6c0,0.9-0.7,1.6-1.6,1.6s-1.7-0.7-1.7-1.6v-7.7h3.2L351.8,573.6L351.8,573.6z"/>
			<path class="hotel9" d="M355.1,573.6c0,0.9-0.7,1.6-1.6,1.6s-1.7-0.7-1.7-1.6v-7.7h3.2L355.1,573.6L355.1,573.6z"/>
			<path class="hotel19" d="M358.3,573.6c0,0.9-0.7,1.6-1.6,1.6s-1.7-0.7-1.7-1.6v-7.7h3.2L358.3,573.6L358.3,573.6z"/>
			<path class="hotel9" d="M361.7,573.6c0,0.9-0.7,1.6-1.6,1.6s-1.7-0.7-1.7-1.6v-7.7h3.2L361.7,573.6L361.7,573.6z"/>
			<path class="hotel19" d="M364.9,573.6c0,0.9-0.7,1.6-1.6,1.6s-1.7-0.7-1.7-1.6v-7.7h3.2L364.9,573.6L364.9,573.6z"/>
			<path class="hotel9" d="M368.1,573.6c0,0.9-0.7,1.6-1.6,1.6s-1.7-0.7-1.7-1.6v-7.7h3.2L368.1,573.6L368.1,573.6z"/>
			<path class="hotel19" d="M371.4,573.6c0,0.9-0.7,1.6-1.6,1.6s-1.7-0.7-1.7-1.6v-7.7h3.2L371.4,573.6L371.4,573.6z"/>
			<path class="hotel9" d="M374.6,573.6c0,0.9-0.7,1.6-1.6,1.6s-1.7-0.7-1.7-1.6v-7.7h3.2L374.6,573.6L374.6,573.6z"/>
			<path class="hotel19" d="M377.9,573.6c0,0.9-0.7,1.6-1.6,1.6s-1.7-0.7-1.7-1.6v-7.7h3.2L377.9,573.6L377.9,573.6z"/>
			<path class="hotel19" d="M384.5,573.6c0,0.9-0.7,1.6-1.6,1.6s-1.7-0.7-1.7-1.6v-7.7h3.2L384.5,573.6L384.5,573.6z"/>
			<path class="hotel19" d="M319.5,573.6c0,0.9-0.7,1.6-1.6,1.6s-1.7-0.7-1.7-1.6v-7.7h3.2L319.5,573.6L319.5,573.6z"/>
			<path class="hotel9" d="M381.2,573.6c0,0.9-0.7,1.6-1.6,1.6s-1.7-0.7-1.7-1.6v-7.7h3.2L381.2,573.6L381.2,573.6z"/>
		</g>
		<rect x="319.3" y="565" class="hotel24" width="62" height="0.9"/>
	</g>
	<g class="hotel8">
		<path class="hotel9" d="M334.6,553.8c0-2.6,2-4.5,4.4-4.5c1.6,0,2.8,0.6,3.4,1.7l-1.1,0.8c-0.6-0.8-1.3-1.2-2.5-1.2
			c-1.8,0-3,1.4-3,3.2c0,1.9,1.3,3.2,3,3.2c1.1,0,2-0.4,2.7-1.3l1.1,0.7c-0.9,1.2-2.1,1.8-3.7,1.8
			C336.6,558.3,334.6,556.4,334.6,553.8z"/>
		<path class="hotel9" d="M344.7,558.2h-1.4l3.8-8.9h0.1l3.8,8.9h-1.5L349,557h-3.9L344.7,558.2z M347.2,552.3l-1.5,3.4h2.9
			C348.7,555.7,347.2,552.3,347.2,552.3z"/>
		<path class="hotel9" d="M352.3,549.4h5.4v1.2h-4v3.6h3.7v1.2h-3.7v2.7h-1.4V549.4z"/>
		<path class="hotel9" d="M359.3,549.4h5.5v1.2h-4.1v3.6h3.7v1.2h-3.7v1.5h4.3v1.2h-5.7L359.3,549.4L359.3,549.4z M362.2,547h1.5
			l-1.1,2h-1L362.2,547z"/>
	</g>
</g>
</svg>
